<?xml version="1.0" encoding="utf-8"?>
<!-- Generator: Adobe Illustrator 15.0.2, SVG Export Plug-In . SVG Version: 6.00 Build 0)  -->
<!DOCTYPE svg PUBLIC "-//W3C//DTD SVG 1.1//EN" "http://www.w3.org/Graphics/SVG/1.1/DTD/svg11.dtd">
<svg version="1.1" id="Layer_1" xmlns="http://www.w3.org/2000/svg" xmlns:xlink="http://www.w3.org/1999/xlink" x="0px" y="0px"
	 width="32px" height="32px" viewBox="0 0 32 32" enable-background="new 0 0 32 32" xml:space="preserve">
<g>
	<path fill="#55ACEE" d="M2.32,5.45c0,0,5.88,6.86,13.3,6.66c0,0-1.18-5.25,3.85-7.51c1.07-0.48,4.42-1.37,7.36,1.59
		c0.29-0.04,2.41-0.51,4.13-1.77c0,0,0.02,1.98-2.79,3.66c0,0,2.01-0.1,3.62-0.95c0,0-0.53,1.76-3.27,3.4c0,0,0.95,9.38-7.17,15.67
		c0,0-9.76,7.78-21.12,0.8c0,0,4.88,0.92,9.34-2.67c0,0-4.76-0.38-5.91-4.5c0,0,1.5,0.21,2.86-0.19c0,0-5.03-0.88-5.14-6.36
		c0,0,1.52,0.8,2.78,0.61C4.15,13.89-0.54,10.36,2.32,5.45z"/>
</g>
</svg>
