<svg version="1.1" id="Layer_1" xmlns="http://www.w3.org/2000/svg" xmlns:xlink="http://www.w3.org/1999/xlink" x="0" y="0" width="32" height="32" viewBox="0 0 32 32" enable-background="new 0 0 32 32" xml:space="preserve"> <path fill="#A00D03" d="M22.14 1c0.03 0 0.12 0.04 0.25 0.17 0.86 0.87 1.51 3.53 1.47 5.16 -0.08 3.9-3.01 6.63-3.03 6.66l-2.13 1.93 2.87-0.19c0.99-0.07 1.91-0.1 2.72-0.1 3.54 0 4.57 0.65 4.84 0.92 0.2 0.2 0.21 0.38 0.2 0.71 0 0.16 0 0.3 0.02 0.41 0.09 0.67-0.52 1.11-0.53 1.13l-1.13 0.76 1.07 0.85c0.19 0.15 0.91 0.87 0.91 1.57 0 1.02-0.97 1.56-1 1.58l-1.18 0.63 0.94 0.96c0.02 0.02 0.59 0.61 0.54 1.57 -0.02 0.54-0.77 0.97-1.02 1.08l-0.99 0.42 0.47 0.97c0.01 0.01 0.17 0.35 0.07 0.79 -0.18 0.85-0.34 1.59-5.18 1.59 -0.46 0-0.96-0.01-1.5-0.02 -0.89-0.02-2.27-0.3-4.56-0.75l-0.47-0.09c-1.48-0.29-2.85-0.44-4.08-0.44 -0.45 0-0.83 0.02-1.15 0.05l0.05-13.81c3.77-0.82 4.91-3.29 5.75-5.14 0.42-0.9 0.77-1.69 1.33-2.07 1.72-1.2 2.32-3 2.85-4.59 0.38-1.15 0.72-2.14 1.38-2.61C22.04 1.03 22.11 1 22.14 1M22.14 0c-0.25 0-0.51 0.09-0.78 0.28 -2 1.42-1.53 5.3-4.22 7.19 -2.26 1.58-1.53 6.38-7.5 7.19L9.58 30.49c0 0 0.7-0.23 2.16-0.23 0.96 0 2.25 0.1 3.88 0.42 2.66 0.53 4.16 0.84 5.2 0.87 0.55 0.02 1.06 0.02 1.53 0.02 5.29 0 5.85-0.94 6.16-2.39 0.18-0.84-0.16-1.46-0.16-1.46s1.59-0.64 1.65-1.96c0.06-1.45-0.84-2.32-0.84-2.32s1.53-0.8 1.53-2.46c0-1.33-1.29-2.35-1.29-2.35s1.15-0.78 0.96-2.09c-0.09-0.66 0.73-2.91-6.05-2.91 -0.82 0-1.74 0.03-2.79 0.1 0 0 3.27-2.98 3.36-7.38C24.91 4.16 23.85 0 22.14 0L22.14 0z"/> <path fill="none" stroke="#A00D03" stroke-miterlimit="10" d="M13.42 27.98"/> <path fill="none" stroke="#A00D03" stroke-miterlimit="10" d="M13.42 27.98"/> <path fill="#A00D03" d="M1 14.97l7 0.91v13.85l-7 0.45V15M0 13.83v17.42l9-0.58v0.58V15L0 13.83 0 13.83z"/> </svg>
