<svg version="1.1" id="Layer_1" xmlns="http://www.w3.org/2000/svg" xmlns:xlink="http://www.w3.org/1999/xlink" x="0" y="0" width="32" height="32" viewBox="0 0 32 32" enable-background="new 0 0 32 32" xml:space="preserve"><path fill="#A00D03" d="M23.76 1.48c3.9 0 7.07 3.17 7.07 7.07 0 1.51-0.48 2.96-1.38 4.19L15.44 28.93 2.47 12.74c-0.91-1.23-1.38-2.68-1.38-4.19 0-3.9 3.17-7.07 7.07-7.07 3.21 0 6.02 2.17 6.83 5.28l0.97 3.69 0.97-3.69C17.74 3.65 20.55 1.48 23.76 1.48M23.76 0.48c-3.75 0-6.89 2.56-7.8 6.03 -0.91-3.47-4.05-6.03-7.8-6.03 -4.46 0-8.07 3.62-8.07 8.07 0 1.79 0.59 3.44 1.58 4.78l13.74 17.16 14.83-17.13c1-1.35 1.6-3.01 1.6-4.81C31.83 4.09 28.22 0.48 23.76 0.48L23.76 0.48z"/></svg>