<?xml version="1.0" encoding="utf-8"?>
<!-- Generator: Adobe Illustrator 15.0.2, SVG Export Plug-In . SVG Version: 6.00 Build 0)  -->
<!DOCTYPE svg PUBLIC "-//W3C//DTD SVG 1.1//EN" "http://www.w3.org/Graphics/SVG/1.1/DTD/svg11.dtd">
<svg version="1.1" id="Layer_1" xmlns="http://www.w3.org/2000/svg" xmlns:xlink="http://www.w3.org/1999/xlink" x="0px" y="0px"
	 width="32px" height="32px" viewBox="0 0 32 32" enable-background="new 0 0 32 32" xml:space="preserve">
<g>
	<path fill="#A00D03" d="M2.05,13.02c-0.96-1.3-1.47-2.85-1.47-4.47c0-4.18,3.4-7.57,7.57-7.57c3.44,0,6.45,2.32,7.32,5.65
		l0.48,1.85l0.48-1.85c0.87-3.33,3.88-5.65,7.32-5.65c4.18,0,7.57,3.4,7.57,7.57c0,1.63-0.52,3.2-1.5,4.51L15.42,29.71L2.05,13.02z"
		/>
	<path fill="#A00D03" d="M23.76,1.48c3.9,0,7.07,3.17,7.07,7.07c0,1.51-0.48,2.96-1.38,4.19L15.44,28.93L2.47,12.74
		c-0.91-1.23-1.38-2.68-1.38-4.19c0-3.9,3.17-7.07,7.07-7.07c3.21,0,6.02,2.17,6.83,5.28l0.97,3.69l0.97-3.69
		C17.74,3.65,20.55,1.48,23.76,1.48 M23.76,0.48c-3.75,0-6.89,2.56-7.8,6.03c-0.91-3.47-4.05-6.03-7.8-6.03
		c-4.46,0-8.07,3.62-8.07,8.07c0,1.79,0.59,3.44,1.58,4.78l13.74,17.16l14.83-17.13c1-1.35,1.6-3.01,1.6-4.81
		C31.83,4.09,28.22,0.48,23.76,0.48L23.76,0.48z"/>
</g>
</svg>
