<?xml version="1.0" encoding="utf-8"?>
<!-- Generator: Adobe Illustrator 15.0.2, SVG Export Plug-In . SVG Version: 6.00 Build 0)  -->
<!DOCTYPE svg PUBLIC "-//W3C//DTD SVG 1.1//EN" "http://www.w3.org/Graphics/SVG/1.1/DTD/svg11.dtd">
<svg version="1.1" id="Layer_1" xmlns="http://www.w3.org/2000/svg" xmlns:xlink="http://www.w3.org/1999/xlink" x="0px" y="0px"
	 width="32px" height="32px" viewBox="0 0 32 32" enable-background="new 0 0 32 32" xml:space="preserve">
<path fill="#BD081C" d="M10.5,30.55c0,0-0.3-2.27-0.02-3.87c0.28-1.58,1.88-7.86,1.88-7.86s0.07-0.2-0.04-0.58
	c-0.1-0.37-0.57-1.75-0.28-3.33c0.22-1.23,1.23-2.45,2.52-2.45c0,0,1.9-0.02,1.9,1.98c0,0,0.01,0.65-0.06,0.86
	c-0.06,0.21-1.25,4.44-1.25,4.44s-0.35,2.88,2.7,2.8c2.76-0.07,4.44-3.08,4.62-6.71c0,0,0.36-6.59-6.32-6.88
	c-7.01-0.3-7.27,6.11-7.27,6.76c0,1.19,0.02,2.52,1.17,3.52c0,0,0.01,1.1-0.38,2.49c0,0-3.3-1.01-3.3-6c0-5.76,4.46-9.21,10.1-9.21
	c5.64,0,9.44,4.46,9.32,8.76c-0.13,4.34-2.93,9.21-7.49,9.43c0,0-2.62,0.23-4.03-1.61c0,0-1.69,6.51-2.88,7.7
	c0,0,1.89,0.75,4.9,0.75c2.31,0,5.04-0.49,8.58-2.89c3.4-2.31,6.65-6.53,6.65-12.58c0-0.38-0.12-5.14-2.36-8.41
	c-2.27-3.31-6.17-6.82-12.92-7.06c0,0-7.85-0.43-12.8,6.36c-1.52,2.09-2.62,4.27-2.88,8.07c0,0-0.67,4.65,2.28,9.41
	C4.3,26.83,6.77,29.05,10.5,30.55L10.5,30.55z"/>
</svg>
