<svg version="1.1" id="Layer_1" xmlns="http://www.w3.org/2000/svg" xmlns:xlink="http://www.w3.org/1999/xlink" x="0" y="0" width="32" height="32" viewBox="0 0 32 32" enable-background="new 0 0 32 32" xml:space="preserve"> <path fill="#55ACEE" d="M2.32 5.45c0 0 5.88 6.86 13.3 6.66 0 0-1.18-5.25 3.85-7.51 1.07-0.48 4.42-1.37 7.36 1.59 0.29-0.04 2.41-0.51 4.13-1.77 0 0 0.02 1.98-2.79 3.66 0 0 2.01-0.1 3.62-0.95 0 0-0.53 1.76-3.27 3.4 0 0 0.95 9.38-7.17 15.67 0 0-9.76 7.78-21.12 0.8 0 0 4.88 0.92 9.34-2.67 0 0-4.76-0.38-5.91-4.5 0 0 1.5 0.21 2.86-0.19 0 0-5.03-0.88-5.14-6.36 0 0 1.52 0.8 2.78 0.61C4.15 13.89-0.54 10.36 2.32 5.45z"/> </svg>
