<?xml version="1.0" encoding="utf-8"?>
<!-- Generator: Adobe Illustrator 15.0.2, SVG Export Plug-In . SVG Version: 6.00 Build 0)  -->
<!DOCTYPE svg PUBLIC "-//W3C//DTD SVG 1.1//EN" "http://www.w3.org/Graphics/SVG/1.1/DTD/svg11.dtd">
<svg version="1.1" id="Layer_1" xmlns="http://www.w3.org/2000/svg" xmlns:xlink="http://www.w3.org/1999/xlink" x="0px" y="0px"
	 width="32px" height="32px" viewBox="0 0 32 32" enable-background="new 0 0 32 32" xml:space="preserve">
<g>
	<g>
		<g>
			<g>
				<path fill="#A00D03" d="M19.96,18.27c-0.44,0-1.05,0.32-1.58,0.88l-0.02,0.02c-0.72,0.76-1.01,1.66-0.63,2.02l9.36,8.91
					c0.1,0.1,0.24,0.14,0.41,0.14c0.44,0,1.05-0.32,1.58-0.87l0.02-0.02c0.72-0.76,1.01-1.66,0.63-2.02l-9.36-8.91
					C20.27,18.32,20.13,18.27,19.96,18.27L19.96,18.27z"/>
			</g>
			<g>
				<g>
					<path fill="#A00D03" d="M11.83,1C5.97,1,1.15,5.68,1,11.58c-0.14,5.98,4.59,10.95,10.57,11.09c0.09,0,0.18,0,0.27,0
						c5.86,0,10.69-4.68,10.83-10.57C22.82,6.12,18.08,1.15,12.1,1C12.01,1,11.92,1,11.83,1L11.83,1z M11.84,21.69
						c-0.08,0-0.16,0-0.24,0c-5.44-0.13-9.74-4.65-9.61-10.09c0.13-5.36,4.51-9.62,9.85-9.62c0.08,0,0.16,0,0.24,0
						c5.44,0.13,9.74,4.65,9.61,10.09C21.56,17.43,17.17,21.69,11.84,21.69L11.84,21.69z"/>
				</g>
			</g>
		</g>
		<circle fill="none" stroke="#A00D03" stroke-width="2" stroke-miterlimit="10" cx="11.84" cy="11.83" r="9.84"/>
	</g>
</g>
</svg>
