<?xml version="1.0" encoding="utf-8"?>
<!-- Generator: Adobe Illustrator 15.0.2, SVG Export Plug-In . SVG Version: 6.00 Build 0)  -->
<!DOCTYPE svg PUBLIC "-//W3C//DTD SVG 1.1//EN" "http://www.w3.org/Graphics/SVG/1.1/DTD/svg11.dtd">
<svg version="1.1" id="Layer_1" xmlns="http://www.w3.org/2000/svg" xmlns:xlink="http://www.w3.org/1999/xlink" x="0px" y="0px"
	 width="32px" height="32px" viewBox="0 0 32 32" enable-background="new 0 0 32 32" xml:space="preserve">
<g>
	<path fill="#727272" d="M22.14,1c0.03,0,0.12,0.04,0.25,0.17c0.86,0.87,1.51,3.53,1.47,5.16c-0.08,3.9-3.01,6.63-3.03,6.66
		l-2.13,1.93l2.87-0.19c0.99-0.07,1.91-0.1,2.72-0.1c3.54,0,4.57,0.65,4.84,0.92c0.2,0.2,0.21,0.38,0.2,0.71c0,0.16,0,0.3,0.02,0.41
		c0.09,0.67-0.52,1.11-0.53,1.13l-1.13,0.76l1.07,0.85c0.19,0.15,0.91,0.87,0.91,1.57c0,1.02-0.97,1.56-1,1.58l-1.18,0.63l0.94,0.96
		c0.02,0.02,0.59,0.61,0.54,1.57c-0.02,0.54-0.77,0.97-1.02,1.08l-0.99,0.42l0.47,0.97c0.01,0.01,0.17,0.35,0.07,0.79
		c-0.18,0.85-0.34,1.59-5.18,1.59c-0.46,0-0.96-0.01-1.5-0.02c-0.89-0.02-2.27-0.3-4.56-0.75l-0.47-0.09
		c-1.48-0.29-2.85-0.44-4.08-0.44c-0.45,0-0.83,0.02-1.15,0.05l0.05-13.81c3.77-0.82,4.91-3.29,5.75-5.14
		c0.42-0.9,0.77-1.69,1.33-2.07c1.72-1.2,2.32-3,2.85-4.59c0.38-1.15,0.72-2.14,1.38-2.61C22.04,1.03,22.11,1,22.14,1 M22.14,0
		c-0.25,0-0.51,0.09-0.78,0.28c-2,1.42-1.53,5.3-4.22,7.19c-2.26,1.58-1.53,6.38-7.5,7.19L9.58,30.49c0,0,0.7-0.23,2.16-0.23
		c0.96,0,2.25,0.1,3.88,0.42c2.66,0.53,4.16,0.84,5.2,0.87c0.55,0.02,1.06,0.02,1.53,0.02c5.29,0,5.85-0.94,6.16-2.39
		c0.18-0.84-0.16-1.46-0.16-1.46s1.59-0.64,1.65-1.96c0.06-1.45-0.84-2.32-0.84-2.32s1.53-0.8,1.53-2.46c0-1.33-1.29-2.35-1.29-2.35
		s1.15-0.78,0.96-2.09c-0.09-0.66,0.73-2.91-6.05-2.91c-0.82,0-1.74,0.03-2.79,0.1c0,0,3.27-2.98,3.36-7.38
		C24.91,4.16,23.85,0,22.14,0L22.14,0z"/>
</g>
<path fill="none" stroke="#727272" stroke-miterlimit="10" d="M13.42,27.98"/>
<path fill="none" stroke="#727272" stroke-miterlimit="10" d="M13.42,27.98"/>
<g>
	<path fill="#727272" d="M1,14.97l7,0.91v13.85l-7,0.45V15 M0,13.83v17.42l9-0.58v0.58V15L0,13.83L0,13.83z"/>
</g>
</svg>
