<?xml version="1.0" encoding="utf-8"?>
<!-- Generator: Adobe Illustrator 15.0.2, SVG Export Plug-In . SVG Version: 6.00 Build 0)  -->
<!DOCTYPE svg PUBLIC "-//W3C//DTD SVG 1.1//EN" "http://www.w3.org/Graphics/SVG/1.1/DTD/svg11.dtd">
<svg version="1.1" id="Layer_1" xmlns="http://www.w3.org/2000/svg" xmlns:xlink="http://www.w3.org/1999/xlink" x="0px" y="0px"
	 width="32px" height="32px" viewBox="0 0 32 32" enable-background="new 0 0 32 32" xml:space="preserve">
<g>
	<path fill="#CCCCCC" d="M16,1c8.27,0,15,6.73,15,15c0,8.27-6.73,15-15,15C7.73,31,1,24.27,1,16C1,7.73,7.73,1,16,1 M16,0
		C7.16,0,0,7.16,0,16c0,8.84,7.16,16,16,16c8.84,0,16-7.16,16-16C32,7.16,24.84,0,16,0L16,0z"/>
</g>
<path fill="#CCCCCC" d="M19.45,27.21c2.89-0.87,5.22-6.98,5.22-6.98c2.36,10.2-8.46,10.8-8.69,10.8c4.4,0,6.26-1.22,7.3-1.91
	c3.42-2.25,5.38-6.44,3.91-10.3c-0.72-1.89-4.39-4.65-5.64-6.17c2.84,7.52-0.28,10.71-0.28,10.71c0.6-1.92,0.44-4.14,0.19-6.03
	c-0.37-2.84-1.33-4.73-3.05-6.57c-2.26-2.41-3.83-5.6-2.3-8.78C15.93,2.35,15.27,2.82,15,3.14c-0.33,0.39-0.62,0.81-0.87,1.27
	c-0.4,0.72-0.72,1.53-0.91,2.35c-0.46,2.05-0.32,4.46,0.47,6.31c0.73,1.71,2.06,3.1,1.08,4.91c-0.6,1.1-1.76,1.94-2.89,1.13
	c-1.55-1.09-1.5-4.67-0.47-6.2c-5.44,8.07-1.35,12.1-1.35,12.1c-4.44-2.78-2.32-8.16-2.32-8.16c-8.03,13.6,8.24,14.16,8.24,14.16
	c-5.07-0.6-5.76-3.88-5.76-3.88c1.7,1.48,4.41,1.54,4.41,1.54c-3.71-2.38-3.28-6.72-3.28-6.72c0.5,3.47,4.52,4.56,4.52,4.56
	c-1.02-3.15,0.75-6.76,0.75-6.76c1.19-2.25,0.37-3.39,0.37-3.39C20.21,20.46,20.34,25.1,19.45,27.21"/>
</svg>
